<?xml version="1.0" encoding="utf-8"?>
<!-- Generator: Adobe Illustrator 16.0.0, SVG Export Plug-In . SVG Version: 6.00 Build 0)  -->
<!DOCTYPE svg PUBLIC "-//W3C//DTD SVG 1.1//EN" "http://www.w3.org/Graphics/SVG/1.1/DTD/svg11.dtd">
<svg version="1.1" id="Layer_1" xmlns="http://www.w3.org/2000/svg" xmlns:xlink="http://www.w3.org/1999/xlink" x="0px" y="0px"
	 width="298.5px" height="180px" viewBox="313.5 327.5 298.5 180" enable-background="new 313.5 327.5 298.5 180"
	 xml:space="preserve">
<g>
	<g>
		<defs>
			<rect id="SVGID_1_" width="612" height="792"/>
		</defs>
		<clipPath id="SVGID_2_">
			<use xlink:href="#SVGID_1_"  overflow="visible"/>
		</clipPath>
		<path clip-path="url(#SVGID_2_)" fill="#FFFFFF" d="M572.594,214.083c0,0.342-0.277,0.62-0.62,0.62c-0.342,0-0.62-0.278-0.62-0.62
			s0.278-0.62,0.62-0.62C572.316,213.463,572.594,213.742,572.594,214.083"/>
	</g>
	<g>
		<defs>
			<rect id="SVGID_3_" width="612" height="792"/>
		</defs>
		<clipPath id="SVGID_4_">
			<use xlink:href="#SVGID_3_"  overflow="visible"/>
		</clipPath>
		<path clip-path="url(#SVGID_4_)" d="M589.12,218.044c0.13,0.096,0.294,0.215,0.504,0.362c0.119,0.178,0.69,0.76,0.81,0.938
			c0.062-0.134-0.158-0.644-0.205-0.717c-0.039-0.061-0.432-0.417-0.743-0.669c-0.05,0.059-0.091,0.106-0.154,0.185
			C589.263,218.102,589.189,218.081,589.12,218.044"/>
	</g>
	<g>
		<defs>
			<rect id="SVGID_5_" width="612" height="792"/>
		</defs>
		<clipPath id="SVGID_6_">
			<use xlink:href="#SVGID_5_"  overflow="visible"/>
		</clipPath>
		<rect x="456.597" y="423.43" clip-path="url(#SVGID_6_)" fill="#fff" width="23.544" height="3.35"/>
	</g>
	<g>
		<defs>
			<rect id="SVGID_7_" width="612" height="792"/>
		</defs>
		<clipPath id="SVGID_8_">
			<use xlink:href="#SVGID_7_"  overflow="visible"/>
		</clipPath>
		<polygon clip-path="url(#SVGID_8_)" fill="#fff" points="537.896,467.864 538.309,480.938 538.576,467.864 		"/>
	</g>
	<g>
		<defs>
			<rect id="SVGID_9_" width="612" height="792"/>
		</defs>
		<clipPath id="SVGID_10_">
			<use xlink:href="#SVGID_9_"  overflow="visible"/>
		</clipPath>
		<path clip-path="url(#SVGID_10_)" d="M572.594,372.083c0,0.342-0.277,0.62-0.62,0.62c-0.342,0-0.62-0.278-0.62-0.62
			s0.278-0.62,0.62-0.62C572.316,371.463,572.594,371.742,572.594,372.083"/>
	</g>
	<g>
		<defs>
			<rect id="SVGID_11_" width="612" height="792"/>
		</defs>
		<clipPath id="SVGID_12_">
			<use xlink:href="#SVGID_11_"  overflow="visible"/>
		</clipPath>
		<path clip-path="url(#SVGID_12_)" fill="#fff" d="M589.12,376.044c0.13,0.096,0.294,0.215,0.504,0.362
			c0.119,0.178,0.69,0.76,0.81,0.938c0.062-0.134-0.158-0.644-0.205-0.717c-0.039-0.061-0.432-0.417-0.743-0.669
			c-0.05,0.059-0.091,0.106-0.154,0.185C589.263,376.102,589.189,376.081,589.12,376.044"/>
	</g>
	<g>
		<defs>
			<rect id="SVGID_13_" width="612" height="792"/>
		</defs>
		<clipPath id="SVGID_14_">
			<use xlink:href="#SVGID_13_"  overflow="visible"/>
		</clipPath>
		<path clip-path="url(#SVGID_14_)" d="M395.243,462.376c0.005,0.028,0.011,0.05,0.016,0.077L395.243,462.376z"/>
	</g>
	<g>
		<defs>
			<rect id="SVGID_15_" width="612" height="792"/>
		</defs>
		<clipPath id="SVGID_16_">
			<use xlink:href="#SVGID_15_"  overflow="visible"/>
		</clipPath>
		<path clip-path="url(#SVGID_16_)" fill="#fff" d="M593.884,433.683c-1.549-5.714-4.571-10.563-8.649-14.689
			c-4.736-4.79-9.771-9.287-14.686-13.9c-2.144-2.011-4.293-4.016-6.199-6.264c-1.264-1.491-2.465-3.031-3.355-4.776
			c-0.437-0.852-0.8-1.75-1.1-2.659c-0.574-1.753-0.351-3.442,0.558-5.053c1.096-1.946,2.604-3.543,4.217-5.058
			c0.05-0.047,0.132-0.062,0.242-0.11c0.708,2.427,0.865,4.919,1.159,7.388c0.144-1.186,0.248-2.368,0.396-3.547
			c0.245-1.938,0.646-3.842,1.269-5.698c0.129-0.389,0.335-0.646,0.697-0.837c1.036-0.541,2.103-0.983,3.245-1.248
			c1.25-0.29,2.513-0.267,3.778-0.244c1.132,0.02,2.284-0.063,3.175-0.802c1.066-0.882,2.24-1.042,3.528-0.915
			c0.226,0.021,0.456,0.005,0.683,0.022c1.135,0.088,2.261,0.213,3.28,0.753c-0.924-0.686-0.002-0.19,0.032-0.216
			c-0.162-0.235,0.054-0.093,0.332,0.131c0.28-0.338,0.396-0.378,0.928-0.369c0.301,0.006,0.605,0.035,0.901,0.097
			c0.659,0.138,1.313,0.303,1.971,0.458c-0.985-0.563-2.057-0.786-3.174-0.842c-2.022-0.099-4.052-0.118-6.057-0.454
			c-0.478-0.078-0.938-0.132-1.201-0.647c-0.088-0.175-0.337-0.295-0.536-0.381c-0.558-0.239-1.152-0.396-1.687-0.676
			c-1.34-0.703-2.813-0.994-4.258-1.287c-2.233-0.452-4.007-1.501-5.29-3.372c-0.972-1.419-1.573-2.996-1.924-4.674
			c-0.08-0.382-0.16-0.764-0.24-1.147c-0.093,0.027-0.129,0.029-0.132,0.04c-0.028,0.096-0.056,0.192-0.073,0.29
			c-0.322,1.834-0.829,3.604-1.84,5.19c-1.292,2.024-3.08,3.32-5.504,3.646c-0.699,0.094-1.415,0.119-2.096,0.289
			c-1.516,0.38-2.885,1.089-4.114,2.051c-2.364,1.849-3.91,4.286-4.998,7.038c-0.497,1.256-0.786,2.572-0.771,3.928
			c0.017,1.316,0.082,2.633,0.147,3.946c0.126,2.513,1.043,4.719,2.588,6.69c1.875,2.392,4.072,4.448,6.519,6.229
			c2.54,1.847,5.132,3.623,7.702,5.427c1.93,1.354,3.857,2.704,5.604,4.298c4.351,3.964,8.069,8.465,11.363,13.328
			c1.437,2.122,2.717,4.333,3.695,6.708c0.72,1.744,1.266,3.534,1.29,5.437c0.031,2.315-0.235,4.604-0.89,6.831
			c-1.114,3.789-3.016,7.122-6.196,9.519c-4.849,3.654-10.324,4.588-16.182,3.148c-2.519-0.617-7.772-1.831-9.612-3.7
			c-1.779-1.808-2.295-3.983-2.228-6.523c0.182-6.847,10.807-8.847,14.28-12.472c0.924-0.963,2.4-3.5,1.239-5.334
			c-0.944-1.49-1.673-3-3.17-3.968c-0.412-0.267-0.854-0.487-1.437-0.479c0.495,0.412,0.971,0.748,1.379,1.152
			c1.477,1.461,2.104,3.445,0.358,5.481c-0.786,0.916-1.658,1.796-2.627,2.51c-2.425,1.788-7.928,3.47-10.396,5.198
			c-0.354,0.245-0.701,0.502-1.022,0.787c-3.034,2.706-4.217,6.159-4.051,10.145c0.037,0.903,0.315,1.756,0.795,2.51
			c0.472,0.744,1.041,1.428,1.573,2.134c0.112,0.151,0.249,0.286,0.455,0.521c-0.536,0-0.934,0.012-1.327-0.003
			c-0.43-0.016-0.864-0.112-1.285-0.07c-1.924,0.193-3.675,0.893-5.306,1.915c-0.141,0.087-0.51-0.316-0.51-0.566
			c0-25.493,0.002-50.986-0.009-76.48c0-1.158,1.632-0.535,2.774-1.123c0.694-0.358,1.471-0.561,2.215-0.82
			c0.703-0.245,1.336-0.606,1.796-1.193c0.542-0.69,0.186-1.583-0.67-1.735c-0.418-0.075-0.84-0.123-1.26-0.181
			c-3.129-0.434-5.473-2.038-7.068-4.748c-0.714-1.211-1.261-3.494-1.606-4.856c-0.221-0.862-0.396-1.735-0.636-2.788
			c-0.108,0.51-0.188,0.831-0.248,1.157c-0.313,1.744-0.818,4.427-1.655,5.996c-1.316,2.468-3.22,4.26-5.981,4.97
			c-0.931,0.238-1.9,0.357-2.861,0.441c-0.534,0.046-0.825,0.324-1.086,0.708c-0.266,0.392,0.022,0.676,0.204,0.988
			c0.356,0.608,0.886,0.986,1.537,1.215c0.688,0.24,1.384,0.456,2.059,0.729c1.438,0.585,3.331,0.101,3.66,1.349
			c0.172,0.647,0.185,1.348,0.202,2.025c0.021,0.708-0.062,1.417-0.062,2.126c-0.004,23.721-0.003,47.438-0.003,71.159
			c0,0.253,0.014,0.508-0.007,0.76c-0.016,0.188-0.073,0.376-0.132,0.645c-0.479-0.115-0.891-0.211-1.3-0.315
			c-3.06-0.786-6.118-1.58-9.181-2.354c-0.464-0.118-0.793-0.315-1.046-0.754c-2.095-3.616-4.253-7.194-6.314-10.828
			c-2.41-4.25-4.742-8.544-7.104-12.821c-0.129-0.23-0.225-0.482-0.361-0.784c1.266-0.13,2.422-0.229,3.574-0.372
			c1.001-0.123,2.016-0.118,2.992-0.448c2.229-0.756,4.525-1.389,6.532-2.635c4.229-2.626,9.063-10.126,5.979-31.247
			c-0.463-3.17-1.273-6.25-2.634-9.163c-3.207-6.859-8.662-10.54-16.123-11.388c-1.77-0.201-3.534-0.218-5.311-0.155
			c-3.418,0.121-6.837,0.2-10.255,0.322c-0.923,0.033-1.76,0.337-2.542,0.877c-0.571,0.395-1.231,0.751-1.9,0.891
			c-1.298,0.268-2.354,0.891-3.299,1.766c-0.973,0.904-1.734,1.976-2.443,3.091c-0.367,0.577-0.729,1.159-1.125,1.715
			c-2.089,2.931-4.654,5.409-7.366,7.748c-0.081,0.071-0.201,0.098-0.32,0.151c-0.061-0.248-0.12-0.442-0.156-0.642
			c-0.831-4.479-1.673-8.956-2.484-13.438c-0.172-0.949-0.72-1.603-1.466-2.12c-0.356-0.246-0.77-0.316-1.229-0.229
			c-1.286,0.242-2.31,0.919-3.098,1.914c-0.785,0.989-1.527,2.023-2.191,3.098c-1.821,2.946-4.007,5.603-6.395,8.096
			c-1.473,1.537-3.003,3.019-4.48,4.55c-0.984,1.023-1.861,2.135-2.562,3.382c-0.73,1.299-0.799,2.615-0.093,3.912
			c0.528,0.976,1.145,1.908,1.774,2.823c0.604,0.875,1.324,1.671,1.905,2.56c0.762,1.161,1.483,2.355,2.134,3.583
			c0.519,0.977,0.31,1.918-0.478,2.711c-0.249,0.252-0.518,0.488-0.748,0.756c-0.357,0.409-0.349,0.418,0.168,0.996
			c0.358-0.229,0.795-0.407,1.098-0.718c0.8-0.818,1.451-1.753,1.883-2.827c0.384-0.959,0.449-1.931,0.057-2.888
			c-0.337-0.816-0.759-1.6-1.125-2.403c-0.356-0.782-0.747-1.555-1.025-2.364c-0.597-1.741-0.581-3.483,0.208-5.179
			c0.331-0.711,0.667-1.421,1.041-2.109c1.824-3.356,4.261-6.211,7.137-8.707c0.404-0.352,0.824-0.442,1.401-0.209
			c-0.093,0.348-0.175,0.681-0.273,1.01c-0.106,0.363-0.257,0.715-0.343,1.082c-2.118,9.069-4.267,18.13-6.333,27.21
			c-3.078,13.521-6.095,27.059-9.14,40.588c-0.037,0.162-0.105,0.317-0.147,0.444c-1.356-0.546-2.648-1.127-3.984-1.585
			c-1.354-0.465-2.746-0.807-4.182-1.22c0-0.293-0.001-0.595,0.001-0.896c0.022-5.878,0.055-11.758,0.067-17.637
			c0.024-12.315,0.023-24.632,0.069-36.946c0.025-7.02,0.165-14.037,1.015-21.018c0.296-2.44,0.685-4.866,1.404-7.223
			c0.831-2.716,2.25-5.141,3.812-7.486c2.137-3.213,4.567-6.198,7.095-9.107c0.206-0.237,0.407-0.479,0.611-0.718
			c-0.186-0.05-0.296-0.011-0.396,0.045c-3.757,2.122-7.363,4.459-10.656,7.259c-3.025,2.572-5.562,5.533-7.312,9.128
			c-1.816,3.735-3.001,7.679-3.821,11.734c-0.777,3.845-1.496,7.702-2.241,11.553c-1.184,6.113-2.363,12.227-3.549,18.339
			c-1.28,6.608-2.566,13.219-3.851,19.827c-1.302,6.708-2.604,13.417-3.908,20.125c-0.19,0.988-0.394,1.978-0.598,3
			c-1.304,0.209-2.568,0.412-3.865,0.62c-0.082-0.292-0.156-0.529-0.214-0.771c-0.109-0.469-0.21-0.938-0.312-1.408
			c-0.104-0.47-0.208-0.938-0.312-1.409c-0.103-0.469-0.207-0.938-0.31-1.407c-0.104-0.471-0.207-0.938-0.312-1.409
			c-0.103-0.47-0.206-0.938-0.31-1.408c-0.1-0.444-0.199-0.89-0.298-1.333c-0.104-0.471-0.207-0.939-0.312-1.409
			c-0.104-0.47-0.207-0.938-0.31-1.409c-0.104-0.469-0.282-0.938-0.288-1.408c-0.006-0.477-0.228-0.867-0.322-1.304
			c-1.487-6.747-2.987-13.49-4.481-20.235c-2.055-9.266-4.106-18.529-6.159-27.795c-0.876-3.954-1.758-7.906-2.621-11.86
			c-0.104-0.471-2.52-5.218-6.624-3.49c-0.601,0.317,0.379,7.285,0.602,8.561c0.039,0.224,0.06,0.453,0.058,0.68
			c-0.017,1.291-0.06,2.582-0.06,3.873c-0.004,11.44-0.192,51.916-0.256,66.014c-0.019,4.25-2.483,6.188-2.483,6.188
			s6.991,1.085,9.062,0.25c0.521-0.21-1.507-1.5-1.557-1.664c3.979-0.99,7.896-2.227,11.993-3.081c0.67,3.124,1.329,6.202,2,9.329
			c-0.688,0.31-1.338,0.58-1.969,0.886c-3.209,1.548-8.942,4.271-12.295,5.481c-5.114,1.849-11.247,1.16-11.924,1.424l1.25,1.125
			c2.267-0.292,9.509,0.5,17.86-2.888c2.249-0.911,4.524-1.756,6.787-2.639c0.278-0.108,0.557-0.222,0.936-0.372
			c0.454,2.136,0.884,4.158,1.327,6.235c-0.911,0.34-1.754,0.668-2.607,0.969c-2.766,0.973-9.636,3.068-16.196,3.308
			c-5.617,0.205-13.248-0.721-14.938-0.613c0.05,0.398-2.427,1.586,2.958,1.75c0.57-0.021,8.125,1,16.492,0.467
			c4.156-0.268,8.232-0.979,12.246-2.081c0.874-0.24,1.751-0.469,2.699-0.722c0.598,2.785,1.182,5.516,1.806,8.429
			c0.104-0.34,0.171-0.497,0.204-0.662c0.562-2.778,1.125-5.557,1.675-8.337c0.074-0.372,0.182-0.622,0.604-0.759
			c6.561-2.109,12.905-4.758,19.158-7.644c3.171-1.463,6.413-2.759,9.729-3.862c0.094-0.032,0.19-0.054,0.351-0.096
			c0.136,0.16,0.29,0.319,0.417,0.497c1.409,1.971,2.199,4.203,2.756,6.533c0.077,0.322,0.498,3.26,0.899,7.385
			c0.009,0.099,0.023,0.195,0.039,0.311c0.188-1.564,0.343-3.111,0.57-4.646c0.379-2.541,1.041-6.001,2.24-8.295
			c0.714-1.366,1.668-2.521,2.842-3.522c0.598-0.511,1.29-0.562,1.979-0.627c3.253-0.312,6.513-0.521,9.783-0.419
			c3.165,0.102,6.305,0.458,9.432,0.972c3.2,0.524,6.37,1.171,9.454,2.18c1.488,0.486,2.936,1.101,4.406,1.644
			c0.339,0.125,0.521,0.354,0.669,0.67c0.872,1.846,1.44,7.786,1.761,9.793c0.262,1.647,0.413,2.312,0.614,3.971
			c0.012,0.095,0.03-1.812,0.072-1.719c0.402-5.197,1.234-9.108,1.736-10.527c0.412,0.183,0.773,0.338,1.131,0.503
			c6.715,3.1,13.579,5.805,20.683,7.887c3.566,1.046,7.15,2.027,10.837,2.582c3.464,0.521,6.948,0.802,10.446,0.672
			c3.392-0.125,6.764-0.496,10.027-1.505c2.158-0.667,4.234-1.53,6.182-2.688c1.62-0.963,7.01-4.761,6.745-9.381
			c-0.125-2.188-1.24-4.526-1.25-4.688c1.445,0.05,8.303,0.101,13.836-0.605c8.478-1.082,14.635-3.04,17.963-7.256
			C592.866,449.962,596.308,442.625,593.884,433.683 M393.357,456.565c0-6.651-0.047-44.839-0.047-55.043v-0.806
			c0.045-0.008,0.09-0.015,0.135-0.022c0.088,0.249,0.193,0.493,0.258,0.747c0.742,3.021,1.525,6.03,2.208,9.064
			c1.929,8.562,8.412,38.157,9.441,42.924C401.351,454.477,397.387,455.513,393.357,456.565 M429.079,401.33
			c0.027,0.002,0.053,0.003,0.079,0.005v49.398c-0.294,0-0.588,0.003-0.883-0.001c-2.891-0.046-5.771,0.085-8.645,0.409
			c-0.171,0.021-0.346,0.002-0.598,0.002C422.396,434.472,425.738,417.9,429.079,401.33 M418.726,452.674
			c3.459-0.506,6.926-0.651,10.445-0.676v6.807c-4.063,0.195-8.052,0.755-12.094,2.066
			C417.647,458.041,418.179,455.396,418.726,452.674 M413.557,461.031c-0.044,0-0.088-0.001-0.132-0.001
			c-0.531-2.396-1.062-4.792-1.608-7.261c1.059-0.315,2.104-0.404,3.273-0.62C414.564,455.855,414.06,458.443,413.557,461.031
			 M427.193,466.264c-4.025,1.706-8.054,3.406-12.135,5.133c0-0.214-0.025-0.379,0.006-0.532c0.439-2.207,0.893-4.412,1.333-6.62
			c0.057-0.287,0.126-0.508,0.44-0.636c2.812-1.135,5.573-2.405,8.553-3.07c0.396-0.089,0.79-0.168,1.188-0.244
			c0.096-0.019,0.198-0.002,0.298-0.002c0.013,0.03,0.027,0.061,0.04,0.092c-0.159,0.06-0.32,0.112-0.477,0.176
			c-0.285,0.118-0.583,0.24-0.53,0.633c0.039,0.292,0.484,0.721,0.779,0.745c0.199,0.02,0.403-0.005,0.605-0.017
			c2.375-0.141,4.749-0.333,7.126-0.404c1.691-0.05,3.387,0.063,5.098,0.192C435.357,463.108,431.226,464.553,427.193,466.264
			 M445.103,457.777c-0.304,0.794-0.973,1.353-1.787,1.638c-1.634,0.569-3.088,0.19-4.291-1.01
			c-0.479-0.476-0.828-1.077-1.214-1.641c-0.105-0.156-0.176-0.373-0.178-0.562c-0.014-1.036-0.002-2.072,0.006-3.108
			c0-0.067,0.046-0.135,0.069-0.196c1.379-0.036,6.851,1.644,7.937,2.486C445.477,456.168,445.396,457.013,445.103,457.777
			 M473.44,458.415c-1.512-0.14-3.017-0.335-4.526-0.461c-3.081-0.26-6.167-0.336-9.254-0.106c-1.894,0.143-3.781,0.312-5.67,0.488
			c-0.628,0.059-1.265,0.129-1.872,0.286c-0.88,0.226-1.713-0.615-1.57-1.496c0.46-2.821,0.759-5.67,1.271-8.48
			c1.186-6.548,2.403-13.09,3.714-19.611c1.13-5.63,6.864-31.596,8.03-36.972c0.056,0.006,0.109,0.013,0.164,0.019
			c1.616,5.289,4.873,19.415,4.873,19.415c0.203,0.728,0.431,1.447,0.604,2.18c1.471,6.149,2.968,12.294,4.386,18.457
			c1.492,6.482,2.908,12.983,4.353,19.479c0.229,1.033,0.432,2.071,0.649,3.127c-0.279,0.166-0.518,0.306-0.753,0.447
			c-1.414,0.854-2.757,1.796-3.896,3.008C473.825,458.316,473.602,458.43,473.44,458.415 M479.128,458.771
			c-0.136,0.535-0.242,0.592-0.793,0.493c-1.265-0.226-2.531-0.444-3.795-0.672c-0.117-0.021-0.229-0.08-0.422-0.149
			c1.431-1.205,2.934-2.139,4.643-2.958c0.159,0.961,0.312,1.822,0.438,2.689C479.226,458.368,479.177,458.579,479.128,458.771
			 M485.92,385.767c-0.004,21.707-0.003,43.414-0.003,65.122v0.905c-0.058,0.009-0.115,0.017-0.172,0.025
			c-0.079-0.255-0.172-0.507-0.237-0.765c-3.343-13.32-6.684-26.642-10.021-39.964c-0.229-0.908-0.518-1.812-0.633-2.733
			c-0.256-2.043-1-3.964-1.396-5.971c-0.396-2.01-0.826-4.015-1.324-6.001c-0.202-0.805-0.091-1.497,0.289-2.178
			c0.233-0.418,0.476-0.846,0.789-1.202c0.938-1.061,1.916-2.087,2.872-3.132c0.222-0.242,0.435-0.496,0.623-0.765
			c1.599-2.285,3.337-4.458,5.255-6.484c0.33-0.348,0.714-0.645,1.063-0.974c0.807-0.767,2.438-0.229,2.723,0.737
			c0.167,0.57,0.205,1.187,0.235,1.785C486.008,384.703,485.92,385.236,485.92,385.767 M539.922,456.877
			c1.622-0.992,3.406-1.393,5.285-1.363c0.756,0.012,1.513,0.111,2.263,0.221c1.108,0.16,2.146,0.485,3.074,1.18
			c0.787,0.587,1.663,1.056,2.509,1.562c0.594,0.356,1.057,0.83,1.529,1.56c-1.209-0.089-2.244-0.136-3.274-0.243
			c-2.108-0.222-4.22-0.457-6.323-0.724c-1.403-0.178-2.802-0.404-4.196-0.633c-0.866-0.141-0.917-0.203-1.379-1.172
			C539.572,457.141,539.736,456.989,539.922,456.877 M529.304,457.612c-0.635,0.85-1.375,1.266-2.267,1.457
			c-0.391,0.083-0.798,0.159-1.147,0.339c-0.375,0.189-0.729,0.203-1.096,0.085c-0.358-0.116-0.717-0.255-1.042-0.44
			c-0.939-0.539-2.762-2.61-3.335-3.801C523.391,456.042,526.285,456.811,529.304,457.612 M524.294,461.432
			c0.835,0.001,1.671,0.002,2.504,0.053c0.369,0.021,0.75,0.121,1.094,0.262c1.498,0.61,2.639,1.673,3.577,2.962
			c1.409,1.934,2.217,4.13,2.788,6.511c-0.202-0.031-0.373-0.024-0.517-0.085c-1.235-0.514-2.502-0.966-3.689-1.574
			c-5.786-2.966-11.671-5.699-17.822-7.827c-0.141-0.05-0.275-0.11-0.41-0.172c-0.015-0.006-0.014-0.045-0.031-0.13h0.735
			C516.446,461.43,520.37,461.427,524.294,461.432 M494.509,376.427c0.9-0.154,1.79-0.306,2.681-0.463
			c2.502-0.442,4.991-0.396,7.448,0.258c3.165,0.845,5.638,2.68,7.484,5.372c1.675,2.44,2.657,5.167,3.302,8.026
			c1.108,4.903,1.3,9.879,1.132,14.881c-0.146,4.334,2.639,19.786-15.364,21.14c-0.15,0.012-0.308,0.037-0.44,0.098
			c-0.943,0.429-1.89,0.849-2.815,1.312c-0.328,0.166-0.603,0.444-0.971,0.722c0.271,0.31,0.479,0.587,0.726,0.824
			c1.577,1.532,2.788,3.334,3.882,5.229c3.276,5.683,6.265,11.517,9.096,17.432c0.074,0.154,0.119,0.322,0.188,0.508
			c-2.757-0.289-5.463-0.652-8.181-0.836c-2.698-0.182-5.408-0.182-8.164-0.264v-74.237H494.509z M494.444,455.88
			c0.062-1.232,0.015-2.472,0.015-3.76c1.869-0.274,3.639-0.087,5.401-0.017c3.154,0.13,6.295,0.479,9.413,0.999
			c0.672,0.113,1.343,0.236,2.02,0.312c0.331,0.037,0.495,0.201,0.602,0.481c0.072,0.188,0.159,0.371,0.231,0.562
			c0.507,1.345,0.702,1.005-0.327,2.44c-0.863,1.204-2.002,1.992-3.518,2.12c-0.581,0.05-1.078,0.279-1.518,0.629
			c-0.261,0.208-0.492,0.267-0.824,0.212c-1.845-0.297-3.688-0.608-5.539-0.827c-1.305-0.151-2.622-0.187-3.937-0.225
			c-0.443-0.012-0.771-0.132-1.052-0.467C494.814,457.628,494.392,456.877,494.444,455.88 M534.349,477.818
			c-3.674-0.06-7.226-0.804-10.713-1.918c-4.701-1.502-9.265-3.359-13.81-5.274c-4.707-1.984-9.437-3.918-14.154-5.875
			c-0.16-0.066-0.312-0.147-0.472-0.222c0.78-1.517,2.25-2.744,4.457-3.717c-0.326-0.09-0.601-0.164-0.868-0.238
			c-0.083-0.298-0.024-0.48,0.305-0.438c0.501,0.067,1.002,0.14,1.498,0.233c2.425,0.463,4.723,1.324,6.979,2.29
			c3.768,1.609,7.515,3.271,11.292,4.859c3.073,1.297,6.163,2.572,9.364,3.53c1.942,0.581,3.928,0.975,5.952,1.125
			c0.074,0.005,0.146,0.034,0.279,0.066c0.415,1.779,0.542,3.615,0.724,5.548C534.879,477.801,534.614,477.823,534.349,477.818
			 M552.158,474.158c-1.81,1.021-3.664,1.828-5.65,2.358c-3.442,0.919-6.966,1.25-10.518,1.326
			c-0.196,0.005-0.394-0.025-0.673-0.046c0.128-2.498,0.346-4.479,0.676-5.502c0.569,0,1.123,0.01,1.675-0.002
			c1.702-0.034,3.384-0.211,5.009-0.751c1.44-0.479,2.715-1.235,3.802-2.297c0.356-0.35,0.674-0.732,0.778-1.278
			c-3.128,2.938-6.886,3.88-11.126,3.646c0.102-0.444,0.174-0.834,0.277-1.217c0.573-2.112,1.327-4.147,2.646-5.929
			c1.002-1.351,2.222-2.435,3.856-2.946c0.54-0.168,2.9-0.843,3.977-0.731c1.486,0.149,2.974,0.301,4.46,0.42
			c1.211,0.097,2.427,0.166,3.641,0.208c0.454,0.016,0.499-0.143,0.771,0.188C557.203,463.37,561.75,468.75,552.158,474.158"/>
	</g>
	<g>
		<defs>
			<rect id="SVGID_17_" width="612" height="792"/>
		</defs>
		<clipPath id="SVGID_18_">
			<use xlink:href="#SVGID_17_"  overflow="visible"/>
		</clipPath>
		<path clip-path="url(#SVGID_18_)" fill="#fff" d="M388.029,462.453c0.062-0.259-6.981-30.118-6.981-30.118
			c0.052-0.031-1.729-6.414-1.832-6.799c-1.8-6.718-3.614-13.433-5.423-20.147c-1.111-4.126-4.672-17.344-4.719-17.539
			c-0.287-1.18-0.541-2.368-0.86-3.54c-0.536-1.977-1.114-3.943-1.675-5.915c-0.438-1.543-0.973-3.037-2.027-4.292
			c-0.158-0.188-0.24-0.442-0.349-0.671c-1.495-3.114-3.224-6.086-5.422-8.765c-2.263-2.755-4.896-5.051-8.138-6.598
			c-0.187-0.089-0.387-0.15-0.713-0.275c0.248,0.397,0.408,0.654,0.569,0.911c2.045,3.261,4.097,6.519,6.133,9.785
			c1.306,2.093,2.308,4.33,3.079,6.673c0.148,0.452,0.152,0.869,0.047,1.333c-1.656,7.305-3.296,14.614-4.938,21.922
			c-0.261,1.15-0.523,2.301-0.79,3.47c-0.131-0.047-0.956,4.302-0.979,4.397c-0.693,3.139-1.389,6.275-2.086,9.414
			c-2.057,9.265-4.115,18.527-6.174,27.792c-0.643,2.891-1.285,5.78-1.939,8.668l-2.561,7.638c-0.439,0.098-7.636-0.028-8.128,0.081
			c0.14,0.083,0.207,0.141,0.285,0.168c1.993,0.67,7.409,2.038,8.524,3.758c1.357,2.093,2.131,4.42,2.584,6.848
			c0.295,1.59,0.437,3.208,0.648,4.812c0.032,0.246,0.078,0.488,0.184,0.729c0.566-5.147,0.777-8.284,0.397-5.564
			c0.386-2.771,1.03-3.47,2.33-5.976c0.636-1.227,1.446-2.314,2.478-3.241c0.321-0.288,0.663-0.414,1.103-0.36
			c4.185,0.504,8.386,0.544,12.593,0.418c0.072-0.002,0.145,0.034,0.281,0.067c-0.066,0.221-0.121,0.431-0.192,0.635
			c-0.708,2.054-0.808,4.171-0.565,6.303c0.16,1.416,0.795,2.656,1.68,3.77c1.361,1.714,3,3.095,5.011,3.974
			c1.528,0.667,3.095,1.242,4.644,1.858c0.113,0.045,0.228,0.084,0.433,0.16c-1.618,2.828-3.208,5.608-4.896,8.556
			c0.262-0.15,0.386-0.196,0.476-0.279c2.546-2.32,5.097-4.637,7.622-6.979C378.123,479.174,384.986,474.625,388.029,462.453
			 M378.27,458.379c-3.987,0.688-7.894,1.182-11.855,1.493c-0.02-0.33,0.21-0.476,0.361-0.646c1.744-1.938,3.924-3.074,6.484-3.497
			c1.178-0.192,2.36-0.295,3.553-0.157c0.324,0.038,0.646,0.093,1.045,0.151C378.001,456.646,378.131,457.484,378.27,458.379
			 M353.114,460.071c-2.24-0.174-4.417-0.874-6.025-2.675c-0.422-0.475-0.676-0.92-0.539-1.614c0.575-2.902,1.031-5.831,1.64-8.727
			c2.33-11.091,4.703-22.173,7.062-33.258c0.3-1.41,4.097-18.499,5.082-22.92c0.097-0.431,0.199-0.861,0.299-1.291
			c0.058-0.002,0.114-0.004,0.173-0.006c2.187,8.248,4.373,16.495,6.594,24.877c-0.209-0.146,1.729,6.488,1.83,6.869
			c2.254,8.588,4.531,17.167,6.76,25.762c0.596,2.3,1.044,4.639,1.553,6.962c0.053,0.239,0.059,0.487,0.096,0.808
			c-0.283-0.042-0.498-0.085-0.713-0.105c-2.695-0.257-5.373-0.255-7.837,1.06c-1.713,0.913-3.177,2.17-4.337,3.743
			c-0.23,0.312-0.455,0.453-0.857,0.48C360.299,460.291,356.695,460.35,353.114,460.071 M377.997,470.719
			c-1.065-0.279-2.337-1.056-4.421-2.676c0.125,1.008,1.382,2.052,4.188,3.453c-0.574,1.861-1.365,3.574-2.382,5.225
			c-0.123,0-0.252,0.024-0.366-0.004c-2.265-0.57-4.459-1.306-6.453-2.569c-2.137-1.355-3.463-3.294-4.205-5.666
			c-0.42-1.342-0.281-2.72-0.069-4.066c0.14-0.89,0.487-1.746,0.75-2.616c0.101-0.333,0.335-0.432,0.685-0.466
			c3.197-0.309,6.393-0.646,9.588-0.96c0.268-0.026,0.562,0,0.812,0.091c0.842,0.3,1.601,0.758,2.265,1.357
			c0.139,0.126,0.289,0.315,0.309,0.488C378.986,465.154,378.748,467.955,377.997,470.719"/>
	</g>
	<g>
		<defs>
			<rect id="SVGID_19_" width="612" height="792"/>
		</defs>
		<clipPath id="SVGID_20_">
			<use xlink:href="#SVGID_19_"  overflow="visible"/>
		</clipPath>
		<path clip-path="url(#SVGID_20_)" fill="#fff" d="M391.734,374.034c-0.428,0.269-5.092,3.969-5.521,4.241
			c-1.39,0.882-2.815,1.711-4.155,2.661c-1.357,0.963-2.459,2.184-3.104,3.761c-0.062,0.15-0.22,0.263-0.33,0.394
			c-0.093,0.534-0.179,1.03-0.233,1.349c0.063,0.105,0.17,0.205,0.184,0.317c0.207,1.646,0.957,3.081,1.703,4.523
			c0.643,1.235,1.306,2.466,1.854,3.743c0.417,0.971,0.675,2.011,0.995,3.021c0.232,0.734,0.01,1.348-0.537,1.855
			c-0.223,0.206-0.46,0.396-0.708,0.57c-0.331,0.232-0.679,0.44-1.047,0.679c0.076,0.269,0.138,0.476,0.194,0.673
			c0.128,0.01,0.211,0.039,0.275,0.018c0.312-0.104,0.655-0.163,0.92-0.34c1.149-0.768,2.149-1.693,2.828-2.918
			c0.432-0.782,0.564-1.635,0.393-2.503c-0.188-0.941-0.42-1.876-0.689-2.797c-0.451-1.538-0.833-3.086-0.757-4.7
			c0.116-2.491,0.935-4.65,3.026-6.184c0.959-0.703,1.904-1.429,2.852-2.148c0.182-0.137,0.359-0.282,0.516-0.447
			c1.795-1.901,2.987-2.42,5.024-4.053"/>
	</g>
</g>
<g>
	<path fill="#fff" d="M333.074,427.642c0,0,2.234-7.553,16.529-3.306c14.297,4.248,36.482,19.762,46.381,11.312
		c9.896-8.45,3.351-0.708,3.351-0.708c-1.235,3.7-14.095,10.361-36.299-1.799C340.863,421.001,333.074,427.642,333.074,427.642"/>
	<path fill="#fff" d="M387.729,459.541l5.359,8.046c1.037,0.663,0.756,0.412,1.194-0.028l5.579-7.841
		c0.22-0.22,0.639-0.842-0.67-0.798l-10.789-0.074C387.5,458.766,387.518,459.085,387.729,459.541"/>
	<rect fill="none" width="612" height="792"/>
</g>
</svg>
